<?xml version="1.0" encoding="UTF-8" standalone="no"?>
<svg
   xmlns:dc="http://purl.org/dc/elements/1.1/"
   xmlns:cc="http://creativecommons.org/ns#"
   xmlns:rdf="http://www.w3.org/1999/02/22-rdf-syntax-ns#"
   xmlns:svg="http://www.w3.org/2000/svg"
   xmlns="http://www.w3.org/2000/svg"
   xmlns:sodipodi="http://sodipodi.sourceforge.net/DTD/sodipodi-0.dtd"
   xmlns:inkscape="http://www.inkscape.org/namespaces/inkscape"
   width="210mm"
   height="297mm"
   viewBox="0 0 210 297"
   version="1.1"
   id="svg1599"
   inkscape:version="1.0.2 (e86c870879, 2021-01-15)"
   sodipodi:docname="icon.svg">
  <defs
     id="defs1593" />
  <sodipodi:namedview
     id="base"
     pagecolor="#ffffff"
     bordercolor="#666666"
     borderopacity="1.0"
     inkscape:pageopacity="0.0"
     inkscape:pageshadow="2"
     inkscape:zoom="0.35"
     inkscape:cx="400"
     inkscape:cy="560"
     inkscape:document-units="mm"
     inkscape:current-layer="layer1"
     inkscape:document-rotation="0"
     showgrid="false"
     inkscape:window-width="1267"
     inkscape:window-height="1198"
     inkscape:window-x="208"
     inkscape:window-y="163"
     inkscape:window-maximized="0" />
  <metadata
     id="metadata1596">
    <rdf:RDF>
      <cc:Work
         rdf:about="">
        <dc:format>image/svg+xml</dc:format>
        <dc:type
           rdf:resource="http://purl.org/dc/dcmitype/StillImage" />
        <dc:title></dc:title>
      </cc:Work>
    </rdf:RDF>
  </metadata>
  <g
     inkscape:label="Layer 1"
     inkscape:groupmode="layer"
     id="layer1">
    <g
       id="g1421"
       transform="translate(-109.97318,-2.5228983)"
       style="fill:#000000;fill-opacity:1"
       inkscape:export-xdpi="96"
       inkscape:export-ydpi="96">
      <text
         xml:space="preserve"
         style="font-size:7.6815px;line-height:1.25;font-family:'Press Start 2P';-inkscape-font-specification:'Press Start 2P';stroke-width:0.192034;fill:#000000;fill-opacity:1"
         x="51.239918"
         y="125.97364"
         id="text1460-5-1"
         transform="rotate(-53.346088)"><tspan
           sodipodi:role="line"
           id="tspan1458-2-3"
           x="51.239918"
           y="125.97364"
           style="stroke-width:0.192034;fill:#000000;fill-opacity:1">2</tspan></text>
      <path
         id="path1205-9"
         style="fill:#000000;fill-opacity:1;stroke-width:0.352777"
         d="m 131.38639,49.988335 c 0.0123,-0.0082 0.0898,-0.01434 0.11214,-0.02222 h -0.10026 c -0.004,0.0074 -0.008,0.01484 -0.0119,0.02222 z" />
      <path
         id="path1201-6"
         style="fill:#000000;fill-opacity:1;stroke-width:0.352777"
         d="m 163.11933,60.309151 c -0.29914,-0.759267 -0.60895,-1.513655 -0.96531,-2.245339 -0.006,-0.01191 -0.0128,-0.02323 -0.0186,-0.03514 -0.5458,0.314463 -0.50357,0.300927 -1.07694,0.629936 -4.65667,2.67208 -8.82385,5.089279 -9.26041,5.371248 -0.43657,0.281972 -0.79375,0.390956 -0.79375,0.241848 0,-0.220221 5.252,-6.814614 8.61549,-10.913031 -0.1267,-0.227002 -0.25429,-0.453525 -0.37982,-0.681095 -0.3512,-0.636654 -0.68035,-1.28391 -1.01079,-1.930631 -0.6728,0.993114 -2.99232,3.979836 -6.18877,7.911661 -3.69874,4.549661 -6.86356,8.272365 -7.03316,8.272365 -0.39523,0 -13.46578,-16.068776 -13.68754,-16.819129 -0.48844,0.902999 -0.97711,1.805885 -1.46554,2.708878 1.01272,1.209662 2.1647,2.59887 3.50417,4.256072 3.14707,3.89355 5.66649,7.133376 5.59863,7.200077 -0.0678,0.06669 -2.10771,-1.029584 -4.53306,-2.436545 -1.84087,-1.067901 -4.67884,-2.709749 -7.18405,-4.158919 -0.4139,0.72976 -0.80323,1.47193 -1.16634,2.22777 l 3.68246,2.139405 c 7.90309,4.59092 14.68648,8.361182 15.07453,8.377782 0.34405,0.01474 10.05496,-5.410493 18.28881,-10.117211 z" />
      <path
         id="path1197-1"
         style="fill:#000000;fill-opacity:1;stroke-width:0.352777"
         d="m 145.32662,2.6553083 c -0.98454,0.01902 -3.58384,1.45769 -15.23059,8.1953657 l -14.7221,8.516792 0.006,17.167428 0.007,17.16691 5.87664,3.413744 c 0.4138,-0.754901 0.81873,-1.514652 1.23145,-2.270146 -1.46112,-0.926375 -2.39464,-1.601496 -2.22932,-1.766816 0.21975,-0.219747 2.30418,-1.146575 4.25349,-1.965256 1.21009,-2.226059 2.41995,-4.452131 3.62355,-6.681761 -0.74451,-0.824302 -9.70143,-22.666105 -9.40046,-22.967074 0.10234,-0.102341 4.1882,-0.380828 9.08006,-0.618567 4.89187,-0.237749 10.12504,-0.507664 11.62875,-0.599964 0.84793,-0.05204 1.31657,-0.04599 1.7415,-0.02791 0.4792,-0.891929 0.95789,-1.78417 1.43764,-2.675806 h -0.18087 c -0.63059,1.12e-4 -4.0834,0.153871 -7.67292,0.341583 -3.58951,0.187719 -7.87576,0.434946 -9.525,0.549836 -2.5886,0.180321 -2.92591,0.141173 -2.4691,-0.287838 0.54947,-0.51603 20.2727,-11.8928137 20.61786,-11.8928137 0.10763,0 0.19586,2.540177 0.19586,5.6446177 v 3.846277 c 0.59681,-1.107893 1.18841,-2.218685 1.78645,-3.325897 0.23935,-0.318051 0.38356,-0.763612 0.5886,-1.139981 0.10252,-0.188185 0.2205,-0.358984 0.3731,-0.487826 0.0245,-0.02072 0.0671,-0.01929 0.0935,-0.03772 0.0239,-2.4847707 0.10186,-4.4994667 0.20981,-4.4994667 0.29019,0 19.47276,11.0841597 20.41477,11.7961797 0.84297,0.637429 1.42242,0.636755 -9.35498,0.0057 -2.1854,-0.127966 -3.19222,-0.16261 -4.94389,-0.250629 0.4607,0.875442 0.92064,1.751253 1.38131,2.626712 2.36298,0.125841 4.66176,0.250433 8.04706,0.414961 4.89185,0.237739 8.97633,0.514837 9.07696,0.615466 0.10063,0.100632 -1.91369,5.371537 -4.47621,11.713499 -0.99518,2.462929 -1.82674,4.44646 -2.61638,6.325195 0.55633,1.058116 1.11342,2.115809 1.66966,3.173965 2.10061,-5.428559 5.92006,-14.96705 6.15002,-15.197005 0.0962,-0.09623 0.17518,5.090144 0.17518,11.525396 0,10.922089 -0.0412,11.698086 -0.61754,11.663886 -0.29135,-0.0173 -0.97282,-0.245332 -1.7942,-0.56224 0.45866,0.898012 0.9169,1.795338 1.37976,2.692342 0.37422,0.72522 0.76952,1.438947 1.15238,2.159558 0.40285,-0.246372 1.31609,-0.770302 1.55546,-0.927073 l 0.79375,-0.519867 V 36.465653 19.421732 l -14.05804,-8.155059 c -7.7319,-4.4854277 -14.44204,-8.3304007 -14.91123,-8.5441817 -0.0964,-0.04393 -0.20404,-0.0699 -0.34469,-0.06718 z M 118.02338,27.482731 c 0.29203,0.292031 7.93418,19.40006 7.93078,19.829798 -0.002,0.21567 -1.63434,1.066737 -3.6282,1.891358 -1.99386,0.824619 -3.81826,1.499132 -4.05402,1.499132 -0.32774,0 -0.42891,-2.754696 -0.42891,-11.700576 0,-6.435251 0.0811,-11.618909 0.18035,-11.519712 z" />
      <path
         id="text1452-5"
         style="font-size:10.5833px;line-height:1.25;font-family:'Press Start 2P';-inkscape-font-specification:'Press Start 2P';white-space:pre;shape-inside:url(#rect1454);stroke-width:0.743302;fill:#000000;fill-opacity:1"
         d="m 149.93616,41.379042 h -1.96681 v -0.983403 h -0.9834 v -3.933093 h -0.9834 v 0.983401 h -0.9834 v 2.949692 h 0.9834 v 0.983403 h 0.9834 v 0.983403 h 2.95021 z" />
      <path
         id="path1237-3"
         style="font-size:10.5833px;line-height:1.25;font-family:'Press Start 2P';-inkscape-font-specification:'Press Start 2P';white-space:pre;shape-inside:url(#rect1454);stroke-width:0.743302;fill:#000000;fill-opacity:1"
         d="m 151.90245,38.461389 c -0.17862,-0.338482 -0.35727,-0.676958 -0.53589,-1.015442 h -0.44751 V 36.59742 c -0.0237,-0.04498 -0.0476,-0.0899 -0.0713,-0.134874 h -0.91158 v -0.983403 h -2.9502 v 0.983403 h 1.9668 v 0.983401 h 0.9834 v 3.933095 h 0.98289 v -0.983403 h 0.9834 z" />
      <path
         id="path1233-5"
         style="font-size:10.5833px;line-height:1.25;font-family:'Press Start 2P';-inkscape-font-specification:'Press Start 2P';white-space:pre;shape-inside:url(#rect1454);stroke-width:0.743302;fill:#000000;fill-opacity:1"
         d="m 139.20296,35.479143 c -0.35502,0.655595 -0.71002,1.311212 -1.06505,1.966804 h 0.98134 v -0.983401 h 2.95021 v 0.983401 h -0.98341 v 0.983403 h -1.9668 v 0.982888 h -0.9834 v 0.983401 h -0.98289 v 1.966806 h 6.8833 v -0.983403 h -3.93361 v -0.983403 h 1.96681 v -0.983401 h 0.9834 V 38.42935 h 0.9834 v -1.966804 h -0.9834 v -0.983403 z" />
      <path
         id="text1460-52"
         style="font-size:7.6815px;line-height:1.25;font-family:'Press Start 2P';-inkscape-font-specification:'Press Start 2P';stroke-width:0.192034;fill:#000000;fill-opacity:1"
         d="m 157.53001,26.866233 3.83904,-2.518193 -1.05368,-1.605586 -0.80253,0.526581 -0.52659,-0.802534 -0.80305,0.526582 0.52658,0.802537 -2.0779,1.363223 c 0.29941,0.569113 0.59873,1.138269 0.89813,1.70739 z" />
      <path
         id="path1215-9"
         style="font-size:7.6815px;line-height:1.25;font-family:'Press Start 2P';-inkscape-font-specification:'Press Start 2P';stroke-width:0.192034;fill:#000000;fill-opacity:1"
         d="m 161.57214,34.550001 0.52245,-0.342615 0.52658,0.802534 0.80305,-0.526581 -0.52658,-0.802534 3.21117,-2.106848 -1.57974,-2.40864 -0.80305,0.526582 -0.52659,-0.802534 -0.80305,0.526581 -0.52658,-0.80305 -0.80305,0.526582 -0.52659,-0.802534 -1.60558,1.053166 2.10684,3.211173 -0.36741,0.24133 c 0.29934,0.56915 0.59881,1.138227 0.89813,1.707388 z m 0.0217,-4.60747 0.52659,0.802534 0.80253,-0.526582 0.5271,0.80305 -1.6061,1.053166 -1.05317,-1.605587 z" />
      <text
         xml:space="preserve"
         style="font-size:7.6815px;line-height:1.25;font-family:'Press Start 2P';-inkscape-font-specification:'Press Start 2P';stroke-width:0.192034;fill:#000000;fill-opacity:1"
         x="-148.75003"
         y="-50.528385"
         id="text1460-1-4"
         transform="rotate(-179.78799)"><tspan
           sodipodi:role="line"
           id="tspan1458-8-3"
           x="-148.75003"
           y="-50.528385"
           style="stroke-width:0.192034;fill:#000000;fill-opacity:1">8</tspan><tspan
           sodipodi:role="line"
           x="-148.75003"
           y="-40.92651"
           style="stroke-width:0.192034;fill:#000000;fill-opacity:1"
           id="tspan1510-0" /></text>
      <g
         aria-label="4"
         transform="rotate(-6.0466518,-741.65392,-804.28627)"
         id="text1514-6"
         style="font-size:6.9614px;line-height:1.25;font-family:'Press Start 2P';-inkscape-font-specification:'Press Start 2P';stroke-width:0.174035;fill:#000000;fill-opacity:1">
        <path
           id="path1641-1"
           style="stroke-width:0.65777;fill:#000000;fill-opacity:1"
           d="m 349.90039,291.55273 8.93945,-0.72265 3.87696,7.61328 6.04687,-0.89258 -3.92578,-7.20703 2.78516,-0.22266 -1.85938,-3.3125 -2.77539,0.14258 -6.73633,-12.36523 -8.96093,-0.44922 1.53125,3.12695 -3.30469,-0.0918 1.5664,3.33007 -3,-0.006 c 1.93956,3.68519 3.87696,7.37141 5.81641,11.05664 z m 0.51758,-11.03906 3.16992,0.008 3.42969,6.73243 -6.59961,0.33789 -1.70117,-3.61719 3.35937,-0.0781 z"
           transform="matrix(0.26311131,0.02787073,-0.02787073,0.26311131,-23.785204,18.376087)" />
      </g>
      <g
         aria-label="18"
         id="text1601-1"
         style="font-size:10.5833px;line-height:1.25;font-family:'Press Start 2P';-inkscape-font-specification:'Press Start 2P';stroke-width:0.264583;fill:#000000;fill-opacity:1"
         transform="translate(57.962567,-61.590211)">
        <path
           d="m 73.3805,78.7549 0.5957,-1.1337 1.5244,-0.0303 1.6038,-3.5254 -0.617,-0.0152 0.3487,-0.7118 0.59,0.0199 0.2972,-0.6532 1.1065,0.0467 -1.8607,4.8099 1.4157,-0.0281 -0.3419,1.0652 z"
           style="stroke-width:0.264583;fill:#000000;fill-opacity:1"
           id="path1603-7" />
        <path
           d="m 79.4818,78.5508 0.2688,-1.0441 -0.6768,0.0134 0.5306,-1.8367 0.6147,0.0026 0.2055,-0.7985 -0.5877,-0.0087 0.4118,-1.4251 0.5403,0.0182 0.1622,-0.6303 2.0075,0.0848 -0.0839,0.6159 0.5035,0.017 -0.1466,1.3697 -0.5445,-0.008 -0.1055,0.7748 1.1267,0.0047 -0.1356,1.7304 -0.6101,0.0121 -0.1064,0.9949 z m 2.0914,-3.6463 1.114,0.0165 0.1876,-1.3787 -1.5532,-0.0524 -0.1529,0.6756 0.5465,0.0135 z m -1.8226,2.6022 2.5916,-0.0514 0.1249,-0.9177 -1.2154,0.0089 0.1675,-0.8555 -1.2001,-0.005 z"
           style="stroke-width:0.264583;fill:#000000;fill-opacity:1"
           id="path1605-5" />
      </g>
      <g
         aria-label="6 "
         id="text1675-9"
         style="font-size:10.5833px;line-height:1.25;font-family:'Press Start 2P';-inkscape-font-specification:'Press Start 2P';stroke-width:0.264583;fill:#000000;fill-opacity:1"
         transform="rotate(-4.9542367,-574.89034,-609.3392)">
        <path
           d="m 109.99,98.1952 0.457,0.5155 0.374,-0.7405 1.679,1.9375 -0.315,0.7643 0.414,0.467 -0.317,0.812 0.42,0.463 -1.399,3.773 -0.488,-0.479 1.132,-2.898 -0.445,-0.476 0.351,-0.854 -0.437,-0.482 -1.611,3.721 -0.522,-0.511 -0.493,1.079 -1.13,-1.07 0.541,-1.069 -0.56,-0.549 z m 0.06,1.2992 -1.342,2.6526 1.036,1.049 1.226,-2.689 z"
           style="stroke-width:0.264583;fill:#000000;fill-opacity:1"
           id="path1681-1" />
      </g>
      <g
         aria-label="12 "
         id="text1717-6"
         style="font-size:10.5833px;line-height:1.25;font-family:'Press Start 2P';-inkscape-font-specification:'Press Start 2P';stroke-width:0.264583;fill:#000000;fill-opacity:1"
         transform="translate(58.775317,-61.199709)">
        <path
           d="m 65.2157,104.593 -0.5893,0.313 -0.5319,-1.473 -2.5909,1.15 0.1666,0.855 -0.7862,0.381 -0.1355,-0.901 -0.8069,0.358 -0.1729,-1.652 3.8727,-1.445 -0.3907,-1.082 0.5033,-0.158 z"
           style="stroke-width:0.264583;fill:#000000;fill-opacity:1"
           id="path1721-0" />
        <path
           d="m 63.5659,100.469 -1.0057,0.291 -0.1513,-0.471 -0.5257,0.139 -0.1278,-0.4552 -0.5362,0.1312 -0.2035,-0.8543 -0.5309,0.1089 -0.078,-0.4 -0.5398,0.1014 0.1994,1.325 0.5904,-0.144 0.1974,1.012 -0.6298,0.182 -0.0819,-0.544 -0.6419,0.171 -0.2402,-2.2952 0.5483,-0.094 -0.0548,-0.3641 1.0003,-0.1563 0.082,0.3442 0.4821,-0.0827 0.0995,0.3549 0.4741,-0.089 0.2425,0.7547 0.4771,-0.1069 -0.501,-1.3871 0.418,-0.0653 z"
           style="stroke-width:0.264583;fill:#000000;fill-opacity:1"
           id="path1723-7" />
      </g>
      <g
         aria-label="16 "
         id="text1765-8"
         style="font-size:10.5833px;line-height:1.25;font-family:'Press Start 2P';-inkscape-font-specification:'Press Start 2P';stroke-width:0.264583;fill:#000000;fill-opacity:1"
         transform="matrix(0.88896762,0,0,0.88896762,69.103261,-47.909923)">
        <path
           id="path1769-4"
           style="stroke-width:0.888967;fill:#000000;fill-opacity:1"
           d="m 381.66602,436.95898 -5.37696,5.9375 2.28125,0.77344 2.54297,-2.72265 3.42969,1.16992 c -0.95442,-1.72161 -1.91485,-3.44023 -2.87695,-5.15821 z"
           transform="matrix(0.29762989,0,0,0.29762989,-11.501647,-15.647255)" />
        <path
           d="m 99.7894,116.949 0.6636,0.223 0.355,-0.38 2.664,0.898 -0.386,0.366 0.653,0.219 -0.383,0.355 0.643,0.215 -1.472,1.322 -0.616,-0.203 1.071,-0.989 -0.639,-0.213 0.367,-0.348 -0.647,-0.217 -1.389,1.358 -0.622,-0.205 -0.3206,0.323 -1.2356,-0.406 0.3072,-0.329 -0.6275,-0.207 z m 0.3176,0.593 -0.9896,1.059 1.2626,0.419 1.033,-1.041 z"
           style="stroke-width:0.264583;fill:#000000;fill-opacity:1"
           id="path1771-2" />
      </g>
      <g
         aria-label="10"
         id="text1817-7"
         style="font-size:10.5833px;line-height:1.25;font-family:'Press Start 2P';-inkscape-font-specification:'Press Start 2P';stroke-width:0.264583;fill:#000000;fill-opacity:1"
         transform="rotate(4.0539932,962.6352,926.95182)">
        <path
           d="m 74.4796,118.897 -0.53,0.208 -0.6082,-0.674 -2.331,0.856 0.3186,0.361 -0.6288,0.239 -0.3227,-0.368 -0.6551,0.241 -0.6489,-0.745 3.6649,-1.252 -0.5978,-0.663 0.5513,-0.175 z"
           style="stroke-width:0.264583;fill:#000000;fill-opacity:1"
           id="path1821-5" />
        <path
           id="path1823-3"
           style="stroke-width:0.999999;fill:#000000;fill-opacity:1"
           d="m 265.31055,438.73047 3.50195,-0.61719 -1.00586,-1.28711 -1.61133,0.26758 c -0.29506,0.54549 -0.5897,1.09123 -0.88476,1.63672 z"
           transform="matrix(0.26392131,-0.01870512,0.01870512,0.26392131,-8.7627166,4.5466373)" />
        <path
           id="path1225-1"
           style="stroke-width:0.999999;fill:#000000;fill-opacity:1"
           d="m 261.50781,445.80078 2.06055,-0.45117 1.07422,1.41016 7.05859,-1.6211 -1.03906,-1.33984 2.2168,-0.48242 -1.02344,-1.3086 2.1582,-0.44922 -3.00976,-3.83203 -2.19141,0.38672 2.02344,2.5918 -2.23828,0.43945 1.02929,1.32422 -7.12304,1.48047 c -0.33193,0.61724 -0.65619,1.23851 -0.9961,1.85156 z"
           transform="matrix(0.26392131,-0.01870512,0.01870512,0.26392131,-8.7627166,4.5466373)" />
        <path
           id="path1223-1"
           style="stroke-width:0.999999;fill:#000000;fill-opacity:1"
           d="m 261.50781,445.80078 c 0.33991,-0.61305 0.66417,-1.23432 0.9961,-1.85156 l -2.54297,0.52734 1.08203,1.42578 z"
           transform="matrix(0.26392131,-0.01870512,0.01870512,0.26392131,-8.7627166,4.5466373)" />
      </g>
      <path
         id="text2000-1-4-0"
         style="font-size:38.8056px;line-height:1.25;font-family:Symbol;-inkscape-font-specification:Symbol;white-space:pre;shape-inside:url(#rect2002);stroke-width:2.43849;fill:#000000;fill-opacity:1"
         d="m 146.87476,11.098143 c -0.64189,0.388703 -0.72203,1.277558 -1.17534,1.850128 -8.50315,15.745964 -16.87082,31.566433 -25.50979,47.237763 -1.50807,2.36127 -3.20313,5.00658 -6.05119,5.8457 -1.24758,0.44467 -2.6287,0.2793 -3.81055,0.87696 -0.0757,0.38432 0.26907,0.72567 0.002,1.07226 0.37014,0.44725 1.06692,0.0755 1.57224,0.19096 6.92696,-0.0606 13.85418,-0.0138 20.78127,-0.0289 -0.0122,-0.48737 0.20804,-1.09994 -0.18359,-1.48437 -2.17969,-0.11983 -4.51352,-0.10221 -6.46849,-1.20508 -1.12897,-0.62994 -1.68377,-2.00056 -1.34311,-3.24128 0.68339,-3.05133 2.71186,-5.54114 3.99724,-8.34098 0.79842,-1.47865 1.59992,-2.95563 2.39639,-4.43532 9.02083,0 18.04167,0 27.0625,0 2.04314,4.27023 4.91906,8.18449 6.19557,12.79055 0.52005,1.8043 -0.96072,3.56925 -2.65316,4.00996 -1.41389,0.37082 -2.89632,0.37287 -4.3471,0.49636 1e-4,0.49208 -0.17438,1.02345 0.0449,1.48829 5.00524,-0.17616 10.01504,-0.0279 15.02228,-0.0781 4.25429,0 8.50859,0 12.76289,0 -0.0197,-0.47789 0.25666,-1.27702 -0.26989,-1.49911 -3.72697,0.15117 -7.61276,-1.70138 -9.40845,-5.05496 -3.72885,-5.84338 -6.52984,-12.20649 -9.89689,-18.25418 -5.64294,-10.727958 -11.28584,-21.455938 -16.92873,-32.183917 -0.59661,-0.0047 -1.19545,-0.104209 -1.79102,-0.05273 z m -1.56836,13.728515 c 3.81226,7.225392 7.62652,14.449716 11.4375,21.675786 -8.03776,0 -16.07552,0 -24.11328,0 4.07186,-7.5171 8.14332,-15.034409 12.21289,-22.552739 0.1543,0.292318 0.3086,0.584636 0.46289,0.876953 z" />
    </g>
  </g>
</svg>
